<?xml version="1.0" encoding="utf-8"?>
<!-- Generator: Adobe Illustrator 22.1.0, SVG Export Plug-In . SVG Version: 6.00 Build 0)  -->
<svg version="1.1" id="Icon_Set" xmlns="http://www.w3.org/2000/svg" xmlns:xlink="http://www.w3.org/1999/xlink" x="0px" y="0px"
	 viewBox="0 0 512 512" style="enable-background:new 0 0 512 512;" xml:space="preserve">
<style type="text/css">
	.st0{fill:#F0C48A;}
	.st1{fill:#FFFFFF;}
	.st2{fill:#D3E6F8;}
	.st3{fill:#7BABF1;}
	.st4{fill:#4C4372;}
	.st5{fill:#A4CFF2;}
	.st6{fill:#FD919E;}
	.st7{fill:#E8677D;}
	.st8{fill:none;stroke:#4C4372;stroke-width:12;stroke-linecap:round;stroke-linejoin:round;stroke-miterlimit:10;}
</style>
<g id="Delivery">
	<g>
		<g>
			<circle class="st0" cx="256" cy="256" r="207"/>
		</g>
	</g>
	<g>
		<g>
			<path class="st2" d="M105.094,283.051h209.055v56.885H118.823c-7.582,0-13.729-6.147-13.729-13.729V283.051z"/>
		</g>
		<g>
			<path class="st6" d="M298.772,137.903H120.471c-8.493,0-15.377,6.884-15.377,15.377v129.771h209.055V153.28
				C314.149,144.788,307.265,137.903,298.772,137.903z"/>
		</g>
		<g>
			<path class="st7" d="M298.772,137.903h-15.258v145.148h30.635V153.28C314.149,144.788,307.265,137.903,298.772,137.903z"/>
		</g>
		<g>
			<rect x="283.514" y="283.051" class="st5" width="30.635" height="56.885"/>
		</g>
		<g>
			<path class="st4" d="M314.149,345.936H118.823c-10.879,0-19.729-8.851-19.729-19.729v-43.156c0-3.314,2.687-6,6-6h209.056
				c3.313,0,6,2.686,6,6v56.885C320.149,343.249,317.463,345.936,314.149,345.936z M111.094,289.051v37.156
				c0,4.262,3.468,7.729,7.729,7.729h189.326v-44.885H111.094z"/>
		</g>
		<g>
			<path class="st4" d="M314.149,289.051H105.094c-3.313,0-6-2.686-6-6V153.28c0-11.787,9.59-21.377,21.377-21.377h178.302
				c11.787,0,21.377,9.59,21.377,21.377v129.771C320.149,286.365,317.463,289.051,314.149,289.051z M111.094,277.051h197.056V153.28
				c0-5.171-4.206-9.377-9.377-9.377H120.471c-5.171,0-9.377,4.207-9.377,9.377V277.051z"/>
		</g>
		<g>
			<path class="st2" d="M421.074,339.936H90.926c-3.451,0-6.248-2.797-6.248-6.248v-15.414c0-3.451,2.797-6.248,6.248-6.248h330.148
				c3.451,0,6.248,2.797,6.248,6.248v15.414C427.322,337.138,424.525,339.936,421.074,339.936z"/>
		</g>
		<g>
			<path class="st2" d="M414.729,312.026h-100.58V182.683h54.024c6.784,0,13.108,3.43,16.808,9.115l26.468,40.67
				c2.14,3.288,3.279,7.127,3.279,11.051V312.026z"/>
		</g>
		<g>
			<path class="st1" d="M391.011,201.063h-4.188h-52.806v34.161v8.295h80.712c0-3.924-1.139-7.763-3.279-11.051L391.011,201.063z"/>
		</g>
		<g>
			<path class="st1" d="M414.729,297.453h-15.811c-2.632,0-4.766-2.134-4.766-4.766v-21.473c0-2.632,2.134-4.765,4.766-4.765h15.811
				V297.453z"/>
		</g>
		<g>
			<path class="st4" d="M414.729,318.026H314.149c-3.313,0-6-2.686-6-6V182.683c0-3.314,2.687-6,6-6h54.024
				c8.847,0,17.01,4.427,21.837,11.842l26.468,40.67c2.78,4.271,4.25,9.225,4.25,14.324v68.507
				C420.729,315.34,418.042,318.026,414.729,318.026z M320.149,306.026h88.579v-62.507c0-2.769-0.798-5.458-2.308-7.778
				l-26.468-40.67c-2.604-4-7.007-6.388-11.779-6.388h-48.024V306.026z"/>
		</g>
		<g>
			<path class="st4" d="M421.074,345.936H90.926c-6.754,0-12.248-5.494-12.248-12.248v-15.414c0-6.753,5.494-12.248,12.248-12.248
				h330.148c6.754,0,12.248,5.494,12.248,12.248v15.414C433.322,340.441,427.828,345.936,421.074,345.936z M90.926,318.026
				c-0.137,0-0.248,0.111-0.248,0.248v15.414c0,0.137,0.111,0.248,0.248,0.248h330.148c0.137,0,0.248-0.111,0.248-0.248v-15.414
				c0-0.137-0.111-0.248-0.248-0.248H90.926z"/>
		</g>
		<g>
			<path class="st4" d="M414.729,303.453h-15.811c-5.937,0-10.766-4.829-10.766-10.766v-21.473c0-5.936,4.829-10.765,10.766-10.765
				h15.811c3.313,0,6,2.686,6,6v31.004C420.729,300.767,418.042,303.453,414.729,303.453z M400.152,291.453h8.576v-19.004h-8.576
				V291.453z"/>
		</g>
		<g>
			<path class="st4" d="M334.017,318.026c-3.313,0-6-2.686-6-6V201.063c0-3.314,2.687-6,6-6h56.995c3.313,0,6,2.686,6,6
				s-2.687,6-6,6h-50.995v104.963C340.017,315.34,337.33,318.026,334.017,318.026z"/>
		</g>
		<g>
			<path class="st4" d="M414.729,249.519h-27.905c-3.313,0-6-2.686-6-6s2.687-6,6-6h27.905c3.313,0,6,2.686,6,6
				S418.042,249.519,414.729,249.519z"/>
		</g>
		<g>
			<path class="st4" d="M366.246,249.519h-32.229c-3.313,0-6-2.686-6-6s2.687-6,6-6h32.229c3.313,0,6,2.686,6,6
				S369.56,249.519,366.246,249.519z"/>
		</g>
		<g>
			
				<ellipse transform="matrix(0.2298 -0.9732 0.9732 0.2298 -49.5648 617.2433)" class="st3" cx="365.178" cy="339.936" rx="34.161" ry="34.161"/>
		</g>
		<g>
			<path class="st4" d="M365.178,380.097c-22.145,0-40.161-18.016-40.161-40.161s18.017-40.161,40.161-40.161
				s40.161,18.016,40.161,40.161S387.322,380.097,365.178,380.097z M365.178,311.774c-15.528,0-28.161,12.633-28.161,28.161
				s12.633,28.161,28.161,28.161s28.161-12.633,28.161-28.161S380.706,311.774,365.178,311.774z"/>
		</g>
		<g>
			
				<ellipse transform="matrix(0.2298 -0.9732 0.9732 0.2298 -49.565 617.2431)" class="st1" cx="365.178" cy="339.936" rx="13.955" ry="13.955"/>
		</g>
		<g>
			<path class="st4" d="M365.178,359.89c-11.003,0-19.955-8.952-19.955-19.955s8.952-19.955,19.955-19.955
				s19.955,8.952,19.955,19.955S376.181,359.89,365.178,359.89z M365.178,331.981c-4.387,0-7.955,3.569-7.955,7.955
				s3.568,7.955,7.955,7.955s7.955-3.569,7.955-7.955S369.564,331.981,365.178,331.981z"/>
		</g>
		<g>
			<path class="st2" d="M382.057,259.061h-11.045c-2.632,0-4.766-2.133-4.766-4.765v-27.384c0-2.632,2.134-4.766,4.766-4.766h11.045
				c2.632,0,4.766,2.134,4.766,4.766v27.384C386.823,256.927,384.689,259.061,382.057,259.061z"/>
		</g>
		<g>
			<path class="st4" d="M382.058,265.061h-11.046c-5.937,0-10.766-4.829-10.766-10.765v-27.384c0-5.936,4.829-10.766,10.766-10.766
				h11.046c5.937,0,10.766,4.829,10.766,10.766v27.384C392.823,260.231,387.994,265.061,382.058,265.061z M372.246,253.061h8.577
				v-24.915h-8.577V253.061z"/>
		</g>
		<g>
			
				<ellipse transform="matrix(0.1602 -0.9871 0.9871 0.1602 -184.1457 463.4337)" class="st3" cx="180.278" cy="339.936" rx="34.161" ry="34.161"/>
		</g>
		<g>
			<path class="st4" d="M180.277,380.097c-22.145,0-40.161-18.016-40.161-40.161s18.017-40.161,40.161-40.161
				c22.146,0,40.162,18.016,40.162,40.161S202.423,380.097,180.277,380.097z M180.277,311.774
				c-15.528,0-28.161,12.633-28.161,28.161s12.633,28.161,28.161,28.161s28.162-12.633,28.162-28.161
				S195.806,311.774,180.277,311.774z"/>
		</g>
		<g>
			
				<ellipse transform="matrix(0.2298 -0.9732 0.9732 0.2298 -191.9837 437.2892)" class="st1" cx="180.278" cy="339.936" rx="13.955" ry="13.955"/>
		</g>
		<g>
			<path class="st4" d="M180.277,359.89c-11.003,0-19.954-8.952-19.954-19.955s8.951-19.955,19.954-19.955
				s19.955,8.952,19.955,19.955S191.28,359.89,180.277,359.89z M180.277,331.981c-4.386,0-7.954,3.569-7.954,7.955
				s3.568,7.955,7.954,7.955c4.387,0,7.955-3.569,7.955-7.955S184.664,331.981,180.277,331.981z"/>
		</g>
		<g>
			<g>
				<g>
					<circle class="st1" cx="209.622" cy="211.449" r="54.74"/>
				</g>
			</g>
			<g>
				<g>
					<path class="st4" d="M209.622,272.188c-33.492,0-60.74-27.248-60.74-60.74s27.248-60.74,60.74-60.74
						s60.739,27.248,60.739,60.74S243.114,272.188,209.622,272.188z M209.622,162.709c-26.875,0-48.74,21.865-48.74,48.74
						s21.865,48.74,48.74,48.74s48.739-21.865,48.739-48.74S236.497,162.709,209.622,162.709z"/>
				</g>
			</g>
			<g>
				<path class="st4" d="M238.437,217.254h-28.814c-3.313,0-6-2.686-6-6v-37.51c0-3.314,2.687-6,6-6s6,2.686,6,6v31.51h22.814
					c3.313,0,6,2.686,6,6S241.75,217.254,238.437,217.254z"/>
			</g>
			<g>
				<g>
					
						<ellipse transform="matrix(0.7071 -0.7071 0.7071 0.7071 -88.1202 210.1568)" class="st3" cx="209.622" cy="211.449" rx="10.062" ry="10.062"/>
				</g>
			</g>
			<g>
				<g>
					<path class="st4" d="M209.622,229.563c-9.988,0-18.114-8.126-18.114-18.114c0-9.988,8.126-18.114,18.114-18.114
						c9.987,0,18.113,8.126,18.113,18.114C227.735,221.437,219.609,229.563,209.622,229.563z M209.622,205.335
						c-3.371,0-6.114,2.743-6.114,6.114s2.743,6.114,6.114,6.114s6.113-2.743,6.113-6.114S212.993,205.335,209.622,205.335z"/>
				</g>
			</g>
		</g>
	</g>
</g>
</svg>
