<?xml version="1.0" encoding="utf-8"?>
<!-- Generator: Adobe Illustrator 22.1.0, SVG Export Plug-In . SVG Version: 6.00 Build 0)  -->
<svg version="1.1" id="Icon_Set" xmlns="http://www.w3.org/2000/svg" xmlns:xlink="http://www.w3.org/1999/xlink" x="0px" y="0px"
	 viewBox="0 0 512 512" style="enable-background:new 0 0 512 512;" xml:space="preserve">
<style type="text/css">
	.st0{fill:#F0C48A;}
	.st1{fill:#FFFFFF;}
	.st2{fill:#D3E6F8;}
	.st3{fill:#7BABF1;}
	.st4{fill:#4C4372;}
	.st5{fill:#A4CFF2;}
	.st6{fill:#FD919E;}
	.st7{fill:#E8677D;}
	.st8{fill:none;stroke:#4C4372;stroke-width:12;stroke-linecap:round;stroke-linejoin:round;stroke-miterlimit:10;}
</style>
<g id="Destination">
	<g>
		<g>
			<circle class="st0" cx="256" cy="256" r="207"/>
		</g>
	</g>
	<g>
		<g>
			<polygon class="st1" points="352.898,282.715 159.102,282.715 91.987,397.816 420.013,397.816 			"/>
		</g>
		<g>
			<polygon class="st2" points="420.013,397.816 371.809,397.816 326.847,282.715 352.898,282.715 			"/>
		</g>
		<g>
			<path class="st4" d="M420.013,403.815H91.987c-2.148,0-4.132-1.148-5.203-3.011c-1.07-1.863-1.062-4.155,0.02-6.011l67.114-115.1
				c1.075-1.844,3.049-2.978,5.183-2.978h193.797c2.134,0,4.108,1.134,5.183,2.978l67.114,115.1c1.082,1.856,1.089,4.148,0.02,6.011
				C424.145,402.667,422.161,403.815,420.013,403.815z M102.431,391.815h307.138l-60.117-103.1H162.548L102.431,391.815z"/>
		</g>
		<g>
			<g>
				<path class="st4" d="M192.744,403.816c-0.341,0-0.687-0.029-1.035-0.089c-3.265-0.567-5.451-3.674-4.884-6.939l20-115.1
					c0.568-3.265,3.676-5.446,6.939-4.884c3.265,0.567,5.451,3.674,4.884,6.939l-20,115.1
					C198.141,401.76,195.607,403.816,192.744,403.816z"/>
			</g>
			<g>
				<path class="st4" d="M319.256,403.816c-2.863,0-5.397-2.056-5.904-4.974l-20-115.1c-0.567-3.265,1.62-6.372,4.884-6.939
					c3.263-0.562,6.371,1.619,6.939,4.884l20,115.1c0.567,3.265-1.62,6.372-4.884,6.939
					C319.943,403.787,319.597,403.816,319.256,403.816z"/>
			</g>
		</g>
		<g>
			<path class="st6" d="M310.678,136.342L310.678,136.342c-30.466-29.543-78.89-29.543-109.356,0v0
				c-26.031,25.242-31.4,65.023-12.991,96.263L256,347.437l67.669-114.832C342.078,201.365,336.709,161.584,310.678,136.342z
				 M256,233.086c-22.288,0-40.355-18.068-40.355-40.355c0-22.288,18.068-40.355,40.355-40.355
				c22.288,0,40.355,18.068,40.355,40.355C296.355,215.018,278.288,233.086,256,233.086z"/>
		</g>
		<g>
			<path class="st4" d="M256,353.437c-2.125,0-4.091-1.124-5.169-2.954l-67.669-114.833
				c-19.884-33.743-14.134-76.352,13.983-103.617c15.86-15.379,36.762-23.85,58.855-23.85s42.995,8.47,58.855,23.85
				c28.117,27.265,33.867,69.874,13.983,103.617l-67.669,114.833C260.091,352.313,258.125,353.437,256,353.437z M256,120.185
				c-18.957,0-36.892,7.268-50.501,20.465c-24.126,23.395-29.06,59.956-11.998,88.91l62.5,106.06l62.5-106.06
				c17.062-28.954,12.128-65.515-11.998-88.91C292.892,127.452,274.957,120.185,256,120.185z"/>
		</g>
		<g>
			<path class="st4" d="M256,239.086c-25.56,0-46.355-20.795-46.355-46.355c0-25.56,20.795-46.355,46.355-46.355
				s46.355,20.795,46.355,46.355C302.355,218.291,281.56,239.086,256,239.086z M256,158.375c-18.943,0-34.355,15.412-34.355,34.355
				c0,18.944,15.412,34.355,34.355,34.355s34.355-15.412,34.355-34.355C290.355,173.787,274.943,158.375,256,158.375z"/>
		</g>
		<g>
			<path class="st4" d="M248.976,372.493c-10.565,0-21.481-0.458-32.718-1.375c-53.396-4.36-94.966-17.408-96.709-17.962
				c-3.158-1.002-4.905-4.375-3.904-7.532c1.001-3.158,4.375-4.91,7.533-3.906c0.416,0.132,42.215,13.237,94.301,17.459
				c47.497,3.85,113.573,0.908,158.604-34.981c2.591-2.066,6.366-1.639,8.432,0.952c2.065,2.592,1.639,6.367-0.952,8.432
				c-21.375,17.035-48.674,28.629-81.141,34.459C285.899,371.005,268.01,372.493,248.976,372.493z"/>
		</g>
	</g>
</g>
</svg>
