<?xml version="1.0" encoding="utf-8"?>
<!-- Generator: Adobe Illustrator 16.0.0, SVG Export Plug-In . SVG Version: 6.00 Build 0)  -->
<!DOCTYPE svg PUBLIC "-//W3C//DTD SVG 1.0//EN" "http://www.w3.org/TR/2001/REC-SVG-20010904/DTD/svg10.dtd">
<svg version="1.0" id="Layer_1" xmlns="http://www.w3.org/2000/svg" xmlns:xlink="http://www.w3.org/1999/xlink" x="0px" y="0px"
	 width="100px" height="100px" viewBox="0 0 100 100" enable-background="new 0 0 100 100" xml:space="preserve">
<path d="M83.333,13.333H16.667C13,13.333,10,16.334,10,20v46.667c0,3.665,3,6.666,6.667,6.666h16.667v-6.666H16.667V20h66.667
	v46.667H66.667v6.666h16.666c3.666,0,6.667-3.001,6.667-6.666V20C90,16.334,86.999,13.333,83.333,13.333z"/>
<path d="M59.944,72.874c0.007-0.068-0.013-0.146,0.004-0.208c0.24-0.908,1.719-1.687,1.719-2.666s-1.479-1.755-1.713-2.666
	c-0.26-0.938,0.632-2.347,0.15-3.167c-0.476-0.837-2.148-0.769-2.826-1.442c-0.67-0.677-0.605-2.351-1.438-2.829
	c-0.82-0.479-2.233,0.41-3.171,0.156c-0.911-0.237-1.686-1.719-2.669-1.719c-0.977,0-1.751,1.481-2.663,1.716
	c-0.944,0.257-2.351-0.635-3.171-0.156c-0.84,0.479-0.768,2.151-1.445,2.825c-0.67,0.674-2.344,0.609-2.825,1.442
	c-0.476,0.823,0.41,2.233,0.156,3.174c-0.234,0.908-1.719,1.687-1.719,2.666s1.484,1.755,1.719,2.666
	c0.016,0.062-0.003,0.14,0.005,0.205l-6.724,6.726l5.303,1.768l1.766,5.303l6.721-6.719c0.068,0.006,0.149-0.014,0.215,0.003
	c0.905,0.234,1.686,1.716,2.663,1.716c0.983,0,1.758-1.481,2.669-1.716c0.063-0.017,0.141,0.003,0.209-0.003l6.719,6.719
	l1.768-5.303l5.303-1.768L59.944,72.874z M50,75c-2.767,0-5-2.233-5-5s2.233-5,5-5c2.761,0,5,2.233,5,5S52.761,75,50,75z"/>
<rect x="36.667" y="26.666" width="26.667" height="6.667"/>
<rect x="23.333" y="40" width="53.333" height="6.666"/>
<rect x="23.333" y="53.333" width="15" height="6.667"/>
<rect x="70" y="53.333" width="6.667" height="6.667"/>
</svg>
